<svg width="105" height="105" viewBox="0 0 105 105" fill="none" xmlns="http://www.w3.org/2000/svg">
<path d="M34.6499 8.61542H71.9653C86.1807 8.61542 97.7307 19.8154 97.7307 33.6V69.7846C97.7307 76.411 95.0161 82.7659 90.1842 87.4514C85.3522 92.137 78.7987 94.7692 71.9653 94.7692H34.6499C20.4345 94.7692 8.88452 83.5693 8.88452 69.7846V33.6C8.88452 26.9737 11.5991 20.6188 16.431 15.9332C21.263 11.2477 27.8165 8.61542 34.6499 8.61542ZM33.7614 17.2308C29.52 17.2308 25.4523 18.8646 22.4532 21.7729C19.454 24.6812 17.7691 28.6256 17.7691 32.7385V70.6462C17.7691 79.2185 24.9213 86.1539 33.7614 86.1539H72.8537C77.0952 86.1539 81.1629 84.52 84.162 81.6118C87.1612 78.7035 88.8461 74.7591 88.8461 70.6462V32.7385C88.8461 24.1662 81.6939 17.2308 72.8537 17.2308H33.7614ZM76.6297 23.6923C78.1024 23.6923 79.5148 24.2596 80.5562 25.2695C81.5976 26.2793 82.1826 27.6489 82.1826 29.077C82.1826 30.505 81.5976 31.8746 80.5562 32.8844C79.5148 33.8943 78.1024 34.4616 76.6297 34.4616C75.157 34.4616 73.7446 33.8943 72.7032 32.8844C71.6619 31.8746 71.0768 30.505 71.0768 29.077C71.0768 27.6489 71.6619 26.2793 72.7032 25.2695C73.7446 24.2596 75.157 23.6923 76.6297 23.6923ZM53.3076 30.1539C59.1985 30.1539 64.8481 32.4231 69.0135 36.4623C73.179 40.5016 75.5191 45.98 75.5191 51.6923C75.5191 57.4047 73.179 62.8831 69.0135 66.9223C64.8481 70.9616 59.1985 73.2308 53.3076 73.2308C47.4167 73.2308 41.7671 70.9616 37.6017 66.9223C33.4362 62.8831 31.0961 57.4047 31.0961 51.6923C31.0961 45.98 33.4362 40.5016 37.6017 36.4623C41.7671 32.4231 47.4167 30.1539 53.3076 30.1539ZM53.3076 38.7693C49.7731 38.7693 46.3833 40.1308 43.884 42.5543C41.3848 44.9779 39.9807 48.2649 39.9807 51.6923C39.9807 55.1197 41.3848 58.4068 43.884 60.8303C46.3833 63.2539 49.7731 64.6154 53.3076 64.6154C56.8421 64.6154 60.2319 63.2539 62.7312 60.8303C65.2304 58.4068 66.6345 55.1197 66.6345 51.6923C66.6345 48.2649 65.2304 44.9779 62.7312 42.5543C60.2319 40.1308 56.8421 38.7693 53.3076 38.7693Z" fill="#E3E3E3"/>
</svg>
