<svg width="105" height="105" viewBox="0 0 105 105" fill="none" xmlns="http://www.w3.org/2000/svg">
<path d="M73.7424 25.0708C70.7065 21.7087 69.0331 17.3919 69.0336 12.9231H55.3068V66.3385C55.2032 69.2298 53.9454 71.969 51.7988 73.9782C49.6522 75.9874 46.7847 77.1095 43.8013 77.1077C37.4932 77.1077 32.2513 72.1108 32.2513 65.9077C32.2513 58.4985 39.6255 52.9416 47.2218 55.2246V41.6123C31.8959 39.6308 18.4801 51.1754 18.4801 65.9077C18.4801 80.2523 30.7409 90.4616 43.7568 90.4616C57.7057 90.4616 69.0336 79.4769 69.0336 65.9077V38.8123C74.5998 42.6886 81.2826 44.7683 88.1355 44.7569V31.4462C88.1355 31.4462 79.7839 31.8339 73.7424 25.0708Z" fill="#E3E3E3"/>
</svg>
