<svg width="105" height="105" viewBox="0 0 105 105" fill="none" xmlns="http://www.w3.org/2000/svg">
<path d="M44.3183 64.7728L67.3194 51.8182L44.3183 38.8637V64.7728ZM95.5501 30.9614C96.1263 32.9909 96.5251 35.7114 96.791 39.1659C97.1013 42.6205 97.2342 45.6 97.2342 48.1909L97.5001 51.8182C97.5001 61.275 96.791 68.2273 95.5501 72.675C94.4422 76.5614 91.8717 79.0659 87.8831 80.1455C85.8001 80.7068 81.9888 81.0955 76.1388 81.3546C70.3774 81.6568 65.1035 81.7864 60.2285 81.7864L53.1819 82.0455C34.6126 82.0455 23.0456 81.3546 18.4808 80.1455C14.4922 79.0659 11.9217 76.5614 10.8138 72.675C10.2376 70.6455 9.83877 67.925 9.57286 64.4705C9.26263 61.0159 9.12968 58.0364 9.12968 55.4455L8.86377 51.8182C8.86377 42.3614 9.57286 35.4091 10.8138 30.9614C11.9217 27.075 14.4922 24.5705 18.4808 23.4909C20.5638 22.9296 24.3751 22.5409 30.2251 22.2819C35.9865 21.9796 41.2604 21.85 46.1354 21.85L53.1819 21.5909C71.7513 21.5909 83.3183 22.2819 87.8831 23.4909C91.8717 24.5705 94.4422 27.075 95.5501 30.9614Z" fill="#E3E3E3"/>
</svg>
